<svg width="453" height="95" viewBox="0 0 453 95" fill="none" xmlns="http://www.w3.org/2000/svg">
<g clip-path="url(#clip0_10_163)">
<path d="M451.543 66.6179C452.468 66.5685 452.615 66.4279 452.664 65.5235C452.687 65.1093 452.679 64.6951 452.679 64.2809C452.679 60.5531 452.679 56.8215 452.679 53.0937C452.679 49.1151 452.683 45.1365 452.675 41.1579C452.672 39.4745 452.66 39.4669 451.056 39.4669C435.126 39.4669 419.195 39.4669 403.265 39.4669C402.864 39.4669 402.464 39.5049 402 39.5277C402 43.0009 402 46.3715 402 49.8713C402.593 49.8941 403.114 49.9359 403.638 49.9359C414.71 49.9397 425.786 49.9359 436.858 49.9435C437.375 49.9435 437.896 50.0005 438.47 50.0309C438.47 51.9537 438.47 53.7549 438.47 55.5333C437.228 55.8487 382.728 55.8107 381.819 55.5105C381.558 53.9829 381.638 34.2305 381.955 33.1855C382.426 33.1855 382.951 33.1855 383.476 33.1855C398.131 33.1855 412.785 33.1855 427.44 33.1855C435.344 33.1855 443.246 33.1855 451.15 33.1817C452.57 33.1817 452.668 33.0981 452.672 31.7377C452.683 29.0853 452.672 26.4329 452.657 23.7805C452.657 23.5069 452.577 23.2295 452.54 22.9901C451.539 22.7165 369.497 22.6329 367.689 22.9179C367.689 23.5373 367.689 24.1073 367.689 24.6773C367.689 38.0191 367.689 51.3647 367.689 64.7065C367.689 66.6559 367.496 66.6217 369.546 66.6217C396.632 66.6217 423.717 66.6217 450.807 66.6217C451.048 66.6217 451.298 66.6331 451.543 66.6179Z" fill="black"/>
<path d="M242.121 65.6564C238.618 59.0938 235.111 52.535 231.608 45.9724C227.697 38.646 223.767 31.3272 219.905 23.978C219.399 23.0166 218.825 22.743 217.799 22.743C199.807 22.7734 181.819 22.7734 163.827 22.743C162.801 22.743 162.212 23.028 161.679 23.9514C158.233 29.9288 154.718 35.8682 151.23 41.8228C146.613 49.704 142.004 57.589 137.399 65.474C137.225 65.7742 137.104 66.101 136.919 66.5C137.274 66.557 137.47 66.6178 137.667 66.6178C142.4 66.6254 147.134 66.6178 151.868 66.633C152.476 66.633 152.827 66.3936 153.133 65.8616C154.579 63.3536 156.111 60.8988 157.523 58.3718C157.999 57.5206 158.546 57.2508 159.482 57.2584C164.503 57.3002 169.528 57.2774 174.548 57.2774C189.988 57.2774 205.424 57.2888 220.864 57.2508C221.985 57.247 222.563 57.6194 223.042 58.596C224.19 60.933 225.481 63.194 226.647 65.5234C227.051 66.329 227.534 66.6596 228.452 66.6482C232.732 66.6026 237.013 66.6292 241.294 66.6254C241.649 66.6254 242 66.576 242.547 66.5342C242.336 66.0934 242.238 65.8692 242.121 65.6564ZM215.13 45.9496C210.109 45.9572 205.092 45.9534 200.071 45.9534C188.633 45.9534 177.198 45.9534 165.76 45.9496C165.273 45.9496 164.782 45.9496 164.001 45.9496C164.295 45.3188 164.446 44.9502 164.635 44.6044C166.515 41.116 168.429 37.639 170.271 34.1316C170.66 33.3906 171.132 33.1778 171.921 33.1778C184.511 33.1968 197.096 33.2006 209.686 33.174C210.554 33.174 210.996 33.4628 211.358 34.2684C212.933 37.772 214.586 41.2376 216.206 44.7222C216.341 45.011 216.447 45.3188 216.64 45.8052C216.055 45.8622 215.594 45.9458 215.13 45.9496Z" fill="black"/>
<path d="M351.056 22.7696C344.676 22.7658 338.297 22.7544 331.913 22.7886C331.419 22.7924 330.868 23.0052 330.445 23.2788C328.655 24.453 326.9 25.6842 325.137 26.904C317.953 31.8782 310.773 36.8524 303.589 41.8266C302.585 42.522 302.585 42.5144 301.555 41.8266C292.374 35.6896 283.189 29.5564 274.02 23.4042C273.378 22.9748 272.74 22.7506 271.962 22.7544C266.077 22.7734 260.188 22.7658 254.303 22.7658C253.903 22.7658 253.503 22.8038 253.129 22.8228C252.842 24.1452 252.887 65.5918 253.197 66.6216C253.597 66.6216 254.039 66.6216 254.484 66.6216C258.067 66.6216 261.645 66.6216 265.228 66.6216C266.93 66.6216 266.93 66.6178 266.93 64.942C266.93 55.2862 266.93 45.6304 266.93 35.9784C266.93 35.3666 266.93 34.7548 266.93 33.8162C267.485 34.1658 267.761 34.3178 268.014 34.504C270.343 36.2064 272.668 37.9164 274.994 39.6264C281.306 44.2662 287.621 48.9022 293.922 53.5534C294.45 53.9448 294.982 54.1196 295.632 54.1196C299.788 54.1044 303.948 54.1044 308.104 54.1196C308.791 54.1234 309.384 53.9714 309.946 53.5572C310.973 52.801 312.038 52.0904 313.08 51.3532C320.954 45.7824 328.825 40.2078 336.7 34.6408C337.051 34.39 337.44 34.1924 337.983 33.8656C338.017 34.4432 338.059 34.7966 338.059 35.15C338.063 45.0528 338.059 54.9556 338.063 64.8622C338.063 65.2346 338.07 65.607 338.085 65.9794C338.1 66.3746 338.316 66.5836 338.704 66.6064C338.95 66.6216 339.199 66.6254 339.444 66.6254C343.231 66.6254 347.017 66.6292 350.807 66.6216C351.203 66.6216 351.6 66.5646 351.958 66.538C352.253 65.0028 352.181 23.7386 351.894 22.8418C351.622 22.8152 351.339 22.7696 351.056 22.7696Z" fill="black"/>
<path d="M74.2844 22.9786C73.7861 22.9254 73.4804 22.8646 73.1708 22.8646C70.6605 22.857 68.1501 22.8608 65.6397 22.8608C52.8009 22.8608 39.9659 22.8722 27.1271 22.8418C26.089 22.838 25.519 23.18 24.9981 24.0844C22.012 29.2752 18.9543 34.4242 15.9267 39.5922C10.9588 48.0738 5.9947 56.5592 1.03058 65.0408C0.7248 65.5614 0.434125 66.0934 0 66.861C0.758775 66.861 1.208 66.861 1.65722 66.861C12.7255 66.861 23.7938 66.861 34.8621 66.861C39.0184 66.861 43.1747 66.8154 47.3272 66.8914C48.4861 66.9142 49.1845 66.5608 49.6299 65.5158C49.8564 64.9876 50.1849 64.5012 50.4755 64.0034C58.1426 50.8326 65.8096 37.6618 73.4728 24.4872C73.7333 24.0388 73.9636 23.5752 74.2844 22.9786Z" fill="black"/>
<path d="M97.6403 23.9932C97.8102 23.6968 97.931 23.37 98.1197 22.9596C97.7007 22.9102 97.4629 22.8608 97.2251 22.8608C91.2983 22.857 85.3678 22.8684 79.441 22.8456C78.7125 22.8418 78.3387 23.142 77.9914 23.7424C75.5641 27.9224 73.099 32.0834 70.6566 36.2558C65.2923 45.4214 59.9318 54.587 54.5713 63.7564C54.0164 64.7026 53.4804 65.6602 52.8311 66.7926C53.4841 66.823 53.9183 66.8572 54.3524 66.8572C60.0338 66.861 65.7151 66.8344 71.3965 66.8838C72.3931 66.8914 72.9443 66.5684 73.4426 65.702C77.4139 58.7898 81.438 51.9042 85.4433 45.011C89.509 38.0038 93.5746 31.0004 97.6403 23.9932Z" fill="black"/>
<path d="M114.201 26.771C114.9 25.5664 115.59 24.358 116.315 23.0888C116.074 22.952 116.04 22.9178 116.006 22.9178C111.932 22.8988 107.859 22.8722 103.786 22.8874C103.48 22.8874 103.125 23.161 102.884 23.3966C102.657 23.617 102.544 23.959 102.378 24.244C96.9797 33.535 91.5814 42.826 86.1832 52.117C83.5671 56.62 80.9473 61.1192 78.335 65.626C78.1424 65.9566 78.0065 66.3176 77.78 66.7964C78.3614 66.8268 78.7238 66.8572 79.0862 66.8572C82.6271 66.861 86.1681 66.8268 89.709 66.8838C90.6264 66.899 91.102 66.5608 91.5399 65.797C94.8393 60.0666 98.1801 54.359 101.506 48.6438C105.738 41.3516 109.969 34.0594 114.201 26.771Z" fill="black"/>
<path d="M132.457 23.9476C132.616 23.6816 132.718 23.3814 132.895 22.9824C132.563 22.9178 132.442 22.8722 132.325 22.8722C129.486 22.8646 126.647 22.8836 123.809 22.8418C123.14 22.8304 122.865 23.1952 122.585 23.6778C121.513 25.536 120.426 27.3904 119.347 29.2448C112.25 41.4542 105.149 53.6636 98.0555 65.873C97.9045 66.1352 97.8215 66.4354 97.6516 66.8534C100.532 66.8534 103.246 66.8192 105.957 66.8724C106.859 66.8914 107.35 66.5608 107.803 65.7856C111.064 60.1806 114.375 54.606 117.667 49.0238C122.601 40.6676 127.531 32.3114 132.457 23.9476Z" fill="black"/>
<path d="M148.769 22.8608C148.063 22.8608 147.667 22.8608 147.27 22.8608C145.583 22.8608 143.892 22.933 142.212 22.8342C141.079 22.7696 140.437 23.1534 139.871 24.149C136.515 30.0314 133.091 35.8758 129.69 41.7316C125.043 49.7306 120.388 57.7296 115.741 65.7286C115.564 66.0326 115.439 66.3632 115.243 66.7812C115.707 66.8154 116.025 66.8534 116.345 66.8534C118.278 66.861 120.215 66.8154 122.148 66.8762C122.967 66.9028 123.408 66.5836 123.801 65.8958C126.451 61.275 129.135 56.6732 131.815 52.0676C136.61 43.8178 141.411 35.5718 146.209 27.322C147.01 25.9388 147.802 24.5442 148.769 22.8608Z" fill="black"/>
<path d="M32.0233 15.3786V2.09381C32.0233 0.570011 31.2797 -0.178589 29.7659 -0.178589H25.3567V17.651H29.7659C31.2797 17.651 32.0233 16.9024 32.0233 15.3786ZM27.3499 1.82401H30.0339V15.6446H27.3499V1.82401Z" fill="black"/>
<path d="M44.1072 15.6446H41.0796V9.49621H44.1072V7.49361H41.0796V1.82401H44.0807V-0.178589H39.0864V17.651H44.1072V15.6446Z" fill="black"/>
<path d="M55.3641 17.651L58.1274 -0.178589H56.3192L54.2769 13.3722L52.4687 -0.178589H50.585L53.1067 17.651H55.3641Z" fill="black"/>
<path d="M69.7583 15.6446H66.7308V9.49621H69.7583V7.49361H66.7308V1.82401H69.7319V-0.178589H64.7375V17.651H69.7583V15.6446Z" fill="black"/>
<path d="M81.8646 15.6446H78.5464V-0.178589H76.5532V17.651H81.8646V15.6446Z" fill="black"/>
<path d="M90.7623 17.651H92.9141C94.4279 17.651 95.1715 16.9024 95.1715 15.3786V2.09381C95.1715 0.570011 94.4279 -0.178589 92.9141 -0.178589H90.7623C89.2486 -0.178589 88.5049 0.570011 88.5049 2.09381V15.3786C88.5049 16.9024 89.2486 17.651 90.7623 17.651ZM90.4943 1.82401H93.1783V15.6446H90.4943V1.82401Z" fill="black"/>
<path d="M104.224 9.49621H106.64C108.154 9.49621 108.897 8.74761 108.897 7.22381V2.09381C108.897 0.570011 108.154 -0.178589 106.64 -0.178589H102.231V17.651H104.224V9.49621ZM104.224 1.82401H106.908V7.48981H104.224V1.82401Z" fill="black"/>
<path d="M120.902 15.6446H117.874V9.49621H120.902V7.49361H117.874V1.82401H120.875V-0.178589H115.881V17.651H120.902V15.6446Z" fill="black"/>
<path d="M129.69 9.49621H132.374V17.651H134.367V10.1118C134.367 9.41641 134.13 8.88061 133.624 8.53481C134.13 8.21561 134.367 7.75961 134.367 7.14401V2.09381C134.367 0.570011 133.624 -0.178589 132.11 -0.178589H127.701V17.651H129.694V9.49621H129.69ZM129.69 1.82401H132.374V7.48981H129.69V1.82401Z" fill="black"/>
<path d="M143.684 17.651H145.836C147.349 17.651 148.093 16.9024 148.093 15.3786V11.0732C148.093 10.3246 148.014 9.78881 147.829 9.46961C147.644 9.15041 147.297 8.88061 146.742 8.69441L144.005 7.67981C143.741 7.57341 143.578 7.46701 143.525 7.36061C143.446 7.25421 143.42 6.98821 143.42 6.53221V1.82401H146.104V6.20921H148.097V2.09381C148.097 0.570011 147.353 -0.178589 145.839 -0.178589H143.688C142.174 -0.178589 141.43 0.570011 141.43 2.09381V6.45241C141.43 7.36061 141.51 8.00281 141.668 8.37521C141.827 8.74761 142.148 9.01741 142.623 9.20361L145.624 10.3512C145.836 10.431 145.968 10.5374 146.024 10.6438C146.077 10.7502 146.104 10.9896 146.104 11.3924V15.6446H143.42V11.343H141.427V15.3786C141.427 16.9024 142.17 17.651 143.684 17.651Z" fill="black"/>
<path d="M142.465 78.0254H140.396C138.939 78.0254 138.225 78.7474 138.225 80.2104V95.1786H140.143V87.3354H142.725V95.1786H144.643V80.2104C144.635 78.7474 143.918 78.0254 142.465 78.0254ZM142.718 85.4088H140.135V79.9558H142.718V85.4088Z" fill="black"/>
<path d="M159.939 78.0254H155.7V95.1786H157.618V79.952H160.2V95.1786H162.117V80.2104C162.11 78.7474 161.396 78.0254 159.939 78.0254Z" fill="black"/>
<path d="M177.414 78.0254H175.345C173.888 78.0254 173.174 78.7474 173.174 80.2104V92.9936C173.174 94.4604 173.888 95.1786 175.345 95.1786H177.414C178.871 95.1786 179.584 94.4604 179.584 92.9936V85.405H176.696V87.3354H177.667V93.252H175.084V79.9558H177.667V84.4056H179.584V80.2142C179.584 78.7474 178.871 78.0254 177.414 78.0254Z" fill="black"/>
<path d="M195.145 93.252H192.563V78.0254H190.645V92.9936C190.645 94.4604 191.362 95.1786 192.816 95.1786H197.055V78.0254H195.137V93.252H195.145Z" fill="black"/>
<path d="M210.037 78.0254H208.123V95.1786H213.231V93.252H210.037V78.0254Z" fill="black"/>
<path d="M228.127 78.0254H226.058C224.601 78.0254 223.888 78.7474 223.888 80.2104V95.1786H225.805V87.3354H228.387V95.1786H230.305V80.2104C230.298 78.7474 229.584 78.0254 228.127 78.0254ZM228.38 85.4088H225.798V79.9558H228.38V85.4088Z" fill="black"/>
<path d="M245.601 78.0254H241.362V95.1786H243.28V87.3354H245.862V95.1786H247.78V87.9244C247.78 87.2556 247.549 86.7426 247.062 86.4082C247.549 86.1004 247.78 85.6634 247.78 85.0706V80.2104C247.772 78.7474 247.059 78.0254 245.601 78.0254ZM245.858 85.4088H243.276V79.9558H245.858V85.4088Z" fill="black"/>
<path d="M262.128 86.5906H258.629V88.3652H262.128V86.5906Z" fill="black"/>
<path d="M281.547 78.0254H272.808V95.1786H274.726V79.952H277.308V95.1786H279.225V79.952H281.807V95.1786H283.725V80.2104C283.718 78.7474 283.004 78.0254 281.547 78.0254Z" fill="black"/>
<path d="M299.022 78.0254H296.953C295.496 78.0254 294.782 78.7474 294.782 80.2104V92.9936C294.782 94.4604 295.499 95.1786 296.953 95.1786H299.022C300.479 95.1786 301.192 94.4604 301.192 92.9936V80.2104C301.192 78.7474 300.479 78.0254 299.022 78.0254ZM299.278 93.252H296.696V79.9558H299.278V93.252Z" fill="black"/>
<path d="M316.496 78.0254H312.253V95.1786H314.171V79.952H316.753V95.1786H318.67V80.2104C318.67 78.7474 317.953 78.0254 316.496 78.0254Z" fill="black"/>
<path d="M331.645 79.9558H334.533V78.0254H329.731V95.1786H334.559V93.252H331.645V87.3354H334.559V85.4088H331.645V79.9558Z" fill="black"/>
<path d="M349.912 85.4088H347.33V78.0292H345.413V85.1542C345.413 86.621 346.126 87.3392 347.583 87.3392H347.659V95.1824H349.576V87.3392H349.652C351.109 87.3392 351.822 86.6172 351.822 85.1542V78.0292H349.905V85.4088H349.912Z" fill="black"/>
<path d="M365.828 86.5906H362.328V88.3652H365.828V86.5906Z" fill="black"/>
<path d="M380.928 78.0254H378.859C377.402 78.0254 376.688 78.7474 376.688 80.2104V92.9936C376.688 94.4604 377.406 95.1786 378.859 95.1786H380.928C382.385 95.1786 383.098 94.4604 383.098 92.9936V85.405H380.211V87.3354H381.181V93.252H378.599V79.9558H381.181V84.4056H383.098V80.2142C383.102 78.7474 382.385 78.0254 380.928 78.0254Z" fill="black"/>
<path d="M398.402 78.0254H394.159V95.1786H396.077V87.3354H398.659V95.1786H400.577V87.9244C400.577 87.2556 400.346 86.7426 399.859 86.4082C400.346 86.1004 400.577 85.6634 400.577 85.0706V80.2104C400.577 78.7474 399.859 78.0254 398.402 78.0254ZM398.659 85.4088H396.077V79.9558H398.659V85.4088Z" fill="black"/>
<path d="M415.877 78.0254H413.808C412.351 78.0254 411.637 78.7474 411.637 80.2104V92.9936C411.637 94.4604 412.354 95.1786 413.808 95.1786H415.877C417.334 95.1786 418.047 94.4604 418.047 92.9936V80.2104C418.051 78.7474 417.334 78.0254 415.877 78.0254ZM416.133 93.252H413.551V79.9558H416.133V93.252Z" fill="black"/>
<path d="M433.608 93.252H431.026V78.0254H429.108V92.9936C429.108 94.4604 429.825 95.1786 431.279 95.1786H435.518V78.0254H433.6V93.252H433.608Z" fill="black"/>
<path d="M450.829 78.0254H446.59V95.1786H448.508V87.3354H450.833C452.29 87.3354 453.004 86.6134 453.004 85.1504V80.2142C453 78.7474 452.287 78.0254 450.829 78.0254ZM451.082 85.4088H448.5V79.9558H451.082V85.4088Z" fill="black"/>
</g>
<defs>
<clipPath id="clip0_10_163">
<rect width="453" height="95" fill="white"/>
</clipPath>
</defs>
</svg>
