<svg width="210" height="44" viewBox="0 0 210 44" fill="none" xmlns="http://www.w3.org/2000/svg">
<g clip-path="url(#clip0_10_85)">
<path d="M209.325 30.8546C209.753 30.8317 209.822 30.7666 209.844 30.3477C209.855 30.1558 209.851 29.964 209.851 29.7722C209.851 28.0456 209.851 26.3173 209.851 24.5907C209.851 22.748 209.853 20.9053 209.85 19.0626C209.848 18.2829 209.843 18.2794 209.099 18.2794C201.714 18.2794 194.329 18.2794 186.944 18.2794C186.758 18.2794 186.573 18.297 186.358 18.3075C186.358 19.9162 186.358 21.4773 186.358 23.0982C186.632 23.1088 186.874 23.1282 187.117 23.1282C192.25 23.1299 197.384 23.1282 202.517 23.1317C202.757 23.1317 202.998 23.1581 203.264 23.1722C203.264 24.0627 203.264 24.897 203.264 25.7206C202.689 25.8667 177.424 25.8491 177.002 25.7101C176.881 25.0026 176.918 15.8541 177.065 15.3701C177.284 15.3701 177.527 15.3701 177.77 15.3701C184.564 15.3701 191.357 15.3701 198.151 15.3701C201.815 15.3701 205.478 15.3701 209.143 15.3683C209.801 15.3683 209.846 15.3296 209.848 14.6995C209.853 13.471 209.848 12.2426 209.841 11.0141C209.841 10.8874 209.804 10.7589 209.787 10.648C209.323 10.5213 171.29 10.4826 170.452 10.6146C170.452 10.9014 170.452 11.1654 170.452 11.4294C170.452 17.6088 170.452 23.7899 170.452 29.9693C170.452 30.8722 170.363 30.8563 171.313 30.8563C183.869 30.8563 196.425 30.8563 208.983 30.8563C209.095 30.8563 209.211 30.8616 209.325 30.8546Z" fill="black"/>
<path d="M112.242 30.4093C110.618 27.3698 108.992 24.332 107.368 21.2925C105.555 17.8992 103.733 14.5094 101.943 11.1056C101.708 10.6603 101.442 10.5336 100.966 10.5336C92.6258 10.5477 84.287 10.5477 75.9465 10.5336C75.4705 10.5336 75.1975 10.6656 74.9508 11.0933C73.353 13.8618 71.7237 16.6126 70.1067 19.3706C67.9665 23.0208 65.8298 26.6728 63.6948 30.3248C63.6143 30.4638 63.5583 30.6152 63.4725 30.8C63.637 30.8264 63.728 30.8546 63.819 30.8546C66.0135 30.8581 68.208 30.8546 70.4025 30.8616C70.6842 30.8616 70.847 30.7507 70.9888 30.5043C71.659 29.3427 72.3695 28.2058 73.024 27.0354C73.2445 26.6411 73.4983 26.5162 73.9323 26.5197C76.2598 26.539 78.589 26.5285 80.9165 26.5285C88.074 26.5285 95.2298 26.5338 102.387 26.5162C102.907 26.5144 103.175 26.6869 103.397 27.1392C103.929 28.2216 104.528 29.2688 105.068 30.3477C105.256 30.7208 105.479 30.8739 105.905 30.8686C107.889 30.8475 109.874 30.8598 111.858 30.8581C112.023 30.8581 112.186 30.8352 112.439 30.8158C112.341 30.6117 112.296 30.5078 112.242 30.4093ZM99.729 21.2819C97.4015 21.2854 95.0758 21.2837 92.7483 21.2837C87.4458 21.2837 82.145 21.2837 76.8425 21.2819C76.6168 21.2819 76.3893 21.2819 76.027 21.2819C76.1635 20.9898 76.2335 20.819 76.321 20.6589C77.1925 19.0432 78.0798 17.4328 78.9338 15.8083C79.114 15.4651 79.3328 15.3666 79.6985 15.3666C85.5348 15.3754 91.3693 15.3771 97.2055 15.3648C97.608 15.3648 97.8128 15.4986 97.9808 15.8717C98.7105 17.4944 99.477 19.0995 100.228 20.7134C100.291 20.8472 100.34 20.9898 100.429 21.215C100.158 21.2414 99.9443 21.2802 99.729 21.2819Z" fill="black"/>
<path d="M162.741 10.5459C159.784 10.5442 156.826 10.5389 153.867 10.5547C153.638 10.5565 153.382 10.655 153.186 10.7818C152.357 11.3256 151.543 11.8958 150.726 12.4608C147.395 14.7646 144.067 17.0685 140.737 19.3723C140.271 19.6944 140.271 19.6909 139.793 19.3723C135.537 16.5299 131.28 13.6893 127.029 10.8398C126.731 10.641 126.436 10.5371 126.075 10.5389C123.347 10.5477 120.617 10.5442 117.889 10.5442C117.703 10.5442 117.518 10.5618 117.344 10.5706C117.211 11.183 117.232 30.3794 117.376 30.8563C117.561 30.8563 117.766 30.8563 117.973 30.8563C119.633 30.8563 121.292 30.8563 122.953 30.8563C123.742 30.8563 123.742 30.8546 123.742 30.0784C123.742 25.6062 123.742 21.1341 123.742 16.6637C123.742 16.3803 123.742 16.097 123.742 15.6622C124 15.8242 124.127 15.8946 124.245 15.9808C125.324 16.7693 126.402 17.5613 127.48 18.3533C130.406 20.5022 133.334 22.6494 136.255 24.8037C136.5 24.985 136.747 25.0659 137.048 25.0659C138.974 25.0589 140.903 25.0589 142.83 25.0659C143.148 25.0677 143.423 24.9973 143.684 24.8054C144.16 24.4552 144.653 24.1261 145.136 23.7846C148.787 21.2045 152.435 18.6226 156.086 16.0442C156.249 15.928 156.429 15.8365 156.681 15.6851C156.697 15.9526 156.716 16.1163 156.716 16.28C156.718 20.8666 156.716 25.4531 156.718 30.0414C156.718 30.2139 156.721 30.3864 156.728 30.5589C156.735 30.7419 156.835 30.8387 157.015 30.8493C157.129 30.8563 157.244 30.8581 157.358 30.8581C159.113 30.8581 160.869 30.8598 162.626 30.8563C162.809 30.8563 162.993 30.8299 163.159 30.8176C163.296 30.1066 163.263 10.9947 163.13 10.5794C163.004 10.567 162.872 10.5459 162.741 10.5459Z" fill="black"/>
<path d="M34.4365 10.6427C34.2055 10.6181 34.0638 10.5899 33.9202 10.5899C32.7565 10.5864 31.5928 10.5882 30.429 10.5882C24.4773 10.5882 18.5273 10.5934 12.5755 10.5794C12.0942 10.5776 11.83 10.736 11.5885 11.1549C10.2043 13.559 8.78675 15.9438 7.38325 18.3374C5.08025 22.2658 2.779 26.1958 0.47775 30.1242C0.336 30.3653 0.20125 30.6117 0 30.9672C0.35175 30.9672 0.56 30.9672 0.76825 30.9672C5.89925 30.9672 11.0302 30.9672 16.1612 30.9672C18.088 30.9672 20.0147 30.9461 21.9398 30.9813C22.477 30.9918 22.8008 30.8282 23.0072 30.3442C23.1122 30.0995 23.2645 29.8742 23.3993 29.6437C26.9535 23.5435 30.5077 17.4434 34.0602 11.3414C34.181 11.1338 34.2878 10.919 34.4365 10.6427Z" fill="black"/>
<path d="M45.2637 11.1126C45.3425 10.9754 45.3985 10.824 45.486 10.6339C45.2917 10.611 45.1815 10.5882 45.0712 10.5882C42.3237 10.5864 39.5745 10.5917 36.827 10.5811C36.4892 10.5794 36.316 10.7184 36.155 10.9965C35.0297 12.9325 33.887 14.8597 32.7547 16.7922C30.268 21.0373 27.783 25.2824 25.298 29.5293C25.0407 29.9675 24.7922 30.411 24.4912 30.9355C24.794 30.9496 24.9952 30.9654 25.1965 30.9654C27.8302 30.9672 30.464 30.9549 33.0977 30.9778C33.5597 30.9813 33.8152 30.8317 34.0462 30.4304C35.8872 27.229 37.7527 24.0398 39.6095 20.8472C41.4942 17.6018 43.379 14.3581 45.2637 11.1126Z" fill="black"/>
<path d="M52.941 12.3992C53.2648 11.8413 53.585 11.2816 53.921 10.6938C53.809 10.6304 53.7933 10.6146 53.7775 10.6146C51.8893 10.6058 50.001 10.5934 48.1128 10.6005C47.971 10.6005 47.8065 10.7272 47.6945 10.8363C47.5895 10.9384 47.537 11.0968 47.46 11.2288C44.9575 15.532 42.455 19.8352 39.9525 24.1384C38.7398 26.224 37.5253 28.3078 36.3143 30.3952C36.225 30.5483 36.162 30.7155 36.057 30.9373C36.3265 30.9514 36.4945 30.9654 36.6625 30.9654C38.304 30.9672 39.9455 30.9514 41.587 30.9778C42.0123 30.9848 42.2328 30.8282 42.4358 30.4744C43.9653 27.8203 45.514 25.1768 47.0558 22.5298C49.0175 19.1523 50.9793 15.7749 52.941 12.3992Z" fill="black"/>
<path d="M61.404 11.0915C61.4775 10.9683 61.5248 10.8293 61.607 10.6445C61.453 10.6146 61.397 10.5934 61.3428 10.5934C60.0268 10.5899 58.7108 10.5987 57.3948 10.5794C57.085 10.5741 56.9573 10.743 56.8278 10.9666C56.3308 11.8272 55.8268 12.6861 55.3263 13.545C52.0363 19.1998 48.7445 24.8547 45.4563 30.5096C45.3863 30.631 45.3478 30.7701 45.269 30.9637C46.6043 30.9637 47.8625 30.9478 49.119 30.9725C49.5373 30.9813 49.7648 30.8282 49.9748 30.4691C51.4868 27.8731 53.0215 25.2912 54.5475 22.7058C56.8348 18.8355 59.1203 14.9653 61.404 11.0915Z" fill="black"/>
<path d="M68.9657 10.5882C68.6385 10.5882 68.4547 10.5882 68.271 10.5882C67.4887 10.5882 66.7048 10.6216 65.926 10.5758C65.401 10.5459 65.1035 10.7237 64.841 11.1848C63.2853 13.9093 61.698 16.6162 60.1213 19.3283C57.967 23.0331 55.8093 26.7379 53.655 30.4427C53.5728 30.5835 53.515 30.7367 53.424 30.9303C53.6393 30.9461 53.7863 30.9637 53.935 30.9637C54.831 30.9672 55.7288 30.9461 56.6248 30.9743C57.0045 30.9866 57.2093 30.8387 57.3913 30.5202C58.6198 28.38 59.864 26.2486 61.1065 24.1155C63.329 20.2946 65.555 16.4754 67.7792 12.6544C68.1502 12.0138 68.5177 11.3678 68.9657 10.5882Z" fill="black"/>
<path d="M14.8452 7.12272V0.969762C14.8452 0.264002 14.5005 -0.0827179 13.7987 -0.0827179H11.7547V8.1752H13.7987C14.5005 8.1752 14.8452 7.82848 14.8452 7.12272ZM12.6787 0.844802H13.923V7.24592H12.6787V0.844802Z" fill="black"/>
<path d="M20.447 7.24592H19.0435V4.39824H20.447V3.47072H19.0435V0.844802H20.4348V-0.0827179H18.1195V8.1752H20.447V7.24592Z" fill="black"/>
<path d="M25.6655 8.1752L26.9465 -0.0827179H26.1083L25.1615 6.19344L24.3233 -0.0827179H23.45L24.619 8.1752H25.6655Z" fill="black"/>
<path d="M32.3382 7.24592H30.9347V4.39824H32.3382V3.47072H30.9347V0.844802H32.326V-0.0827179H30.0107V8.1752H32.3382V7.24592Z" fill="black"/>
<path d="M37.9505 7.24592H36.4123V-0.0827179H35.4883V8.1752H37.9505V7.24592Z" fill="black"/>
<path d="M42.0752 8.1752H43.0728C43.7745 8.1752 44.1193 7.82848 44.1193 7.12272V0.969762C44.1193 0.264002 43.7745 -0.0827179 43.0728 -0.0827179H42.0752C41.3735 -0.0827179 41.0287 0.264002 41.0287 0.969762V7.12272C41.0287 7.82848 41.3735 8.1752 42.0752 8.1752ZM41.951 0.844802H43.1953V7.24592H41.951V0.844802Z" fill="black"/>
<path d="M48.3158 4.39824H49.4358C50.1375 4.39824 50.4823 4.05152 50.4823 3.34576V0.969762C50.4823 0.264002 50.1375 -0.0827179 49.4358 -0.0827179H47.3918V8.1752H48.3158V4.39824ZM48.3158 0.844802H49.56V3.46896H48.3158V0.844802Z" fill="black"/>
<path d="M56.0473 7.24592H54.6438V4.39824H56.0473V3.47072H54.6438V0.844802H56.035V-0.0827179H53.7198V8.1752H56.0473V7.24592Z" fill="black"/>
<path d="M60.1213 4.39824H61.3655V8.1752H62.2895V4.68336C62.2895 4.36128 62.1793 4.11312 61.9448 3.95296C62.1793 3.80512 62.2895 3.59392 62.2895 3.3088V0.969762C62.2895 0.264002 61.9448 -0.0827179 61.243 -0.0827179H59.199V8.1752H60.123V4.39824H60.1213ZM60.1213 0.844802H61.3655V3.46896H60.1213V0.844802Z" fill="black"/>
<path d="M66.6085 8.1752H67.606C68.3078 8.1752 68.6525 7.82848 68.6525 7.12272V5.12864C68.6525 4.78192 68.6158 4.53376 68.53 4.38592C68.4443 4.23808 68.2833 4.11312 68.026 4.02688L66.7573 3.55696C66.6348 3.50768 66.5595 3.4584 66.535 3.40912C66.4983 3.35984 66.486 3.23664 66.486 3.02544V0.844802H67.7303V2.87584H68.6543V0.969762C68.6543 0.264002 68.3095 -0.0827179 67.6078 -0.0827179H66.6103C65.9085 -0.0827179 65.5638 0.264002 65.5638 0.969762V2.98848C65.5638 3.40912 65.6005 3.70656 65.674 3.87904C65.7475 4.05152 65.8963 4.17648 66.1168 4.26272L67.508 4.79424C67.606 4.8312 67.6673 4.88048 67.6935 4.92976C67.718 4.97904 67.7303 5.08992 67.7303 5.27648V7.24592H66.486V5.2536H65.562V7.12272C65.562 7.82848 65.9068 8.1752 66.6085 8.1752Z" fill="black"/>
<path d="M66.0433 36.1381H65.0843C64.4088 36.1381 64.078 36.4725 64.078 37.1501V44.0827H64.967V40.4501H66.164V44.0827H67.053V37.1501C67.0495 36.4725 66.717 36.1381 66.0433 36.1381ZM66.1605 39.5578H64.9635V37.0322H66.1605V39.5578Z" fill="black"/>
<path d="M74.144 36.1381H72.1788V44.0827H73.0678V37.0304H74.2648V44.0827H75.1538V37.1501C75.1503 36.4725 74.8195 36.1381 74.144 36.1381Z" fill="black"/>
<path d="M82.2447 36.1381H81.2857C80.6102 36.1381 80.2795 36.4725 80.2795 37.1501V43.0707C80.2795 43.7501 80.6102 44.0827 81.2857 44.0827H82.2447C82.9202 44.0827 83.251 43.7501 83.251 43.0707V39.556H81.9122V40.4501H82.362V43.1904H81.165V37.0322H82.362V39.0931H83.251V37.1518C83.251 36.4725 82.9202 36.1381 82.2447 36.1381Z" fill="black"/>
<path d="M90.4645 43.1904H89.2675V36.1381H88.3785V43.0707C88.3785 43.7501 88.711 44.0827 89.3847 44.0827H91.35V36.1381H90.461V43.1904H90.4645Z" fill="black"/>
<path d="M97.3683 36.1381H96.481V44.0827H98.8488V43.1904H97.3683V36.1381Z" fill="black"/>
<path d="M105.754 36.1381H104.795C104.12 36.1381 103.789 36.4725 103.789 37.1501V44.0827H104.678V40.4501H105.875V44.0827H106.764V37.1501C106.761 36.4725 106.43 36.1381 105.754 36.1381ZM105.872 39.5578H104.675V37.0322H105.872V39.5578Z" fill="black"/>
<path d="M113.855 36.1381H111.89V44.0827H112.779V40.4501H113.976V44.0827H114.865V40.7229C114.865 40.4131 114.758 40.1755 114.532 40.0206C114.758 39.8781 114.865 39.6757 114.865 39.4011V37.1501C114.861 36.4725 114.53 36.1381 113.855 36.1381ZM113.974 39.5578H112.777V37.0322H113.974V39.5578Z" fill="black"/>
<path d="M121.517 40.1051H119.894V40.927H121.517V40.1051Z" fill="black"/>
<path d="M130.519 36.1381H126.467V44.0827H127.356V37.0304H128.553V44.0827H129.442V37.0304H130.639V44.0827H131.528V37.1501C131.525 36.4725 131.194 36.1381 130.519 36.1381Z" fill="black"/>
<path d="M138.619 36.1381H137.66C136.985 36.1381 136.654 36.4725 136.654 37.1501V43.0707C136.654 43.7501 136.986 44.0827 137.66 44.0827H138.619C139.295 44.0827 139.625 43.7501 139.625 43.0707V37.1501C139.625 36.4725 139.295 36.1381 138.619 36.1381ZM138.738 43.1904H137.541V37.0322H138.738V43.1904Z" fill="black"/>
<path d="M146.72 36.1381H144.753V44.0827H145.642V37.0304H146.839V44.0827H147.728V37.1501C147.728 36.4725 147.396 36.1381 146.72 36.1381Z" fill="black"/>
<path d="M153.743 37.0322H155.081V36.1381H152.855V44.0827H155.094V43.1904H153.743V40.4501H155.094V39.5578H153.743V37.0322Z" fill="black"/>
<path d="M162.211 39.5578H161.014V36.1398H160.125V39.4398C160.125 40.1192 160.456 40.4518 161.131 40.4518H161.166V44.0845H162.055V40.4518H162.09C162.766 40.4518 163.096 40.1174 163.096 39.4398V36.1398H162.207V39.5578H162.211Z" fill="black"/>
<path d="M169.589 40.1051H167.967V40.927H169.589V40.1051Z" fill="black"/>
<path d="M176.589 36.1381H175.63C174.954 36.1381 174.624 36.4725 174.624 37.1501V43.0707C174.624 43.7501 174.956 44.0827 175.63 44.0827H176.589C177.264 44.0827 177.595 43.7501 177.595 43.0707V39.556H176.256V40.4501H176.706V43.1904H175.509V37.0322H176.706V39.0931H177.595V37.1518C177.597 36.4725 177.264 36.1381 176.589 36.1381Z" fill="black"/>
<path d="M184.69 36.1381H182.723V44.0827H183.612V40.4501H184.809V44.0827H185.698V40.7229C185.698 40.4131 185.591 40.1755 185.365 40.0206C185.591 39.8781 185.698 39.6757 185.698 39.4011V37.1501C185.698 36.4725 185.365 36.1381 184.69 36.1381ZM184.809 39.5578H183.612V37.0322H184.809V39.5578Z" fill="black"/>
<path d="M192.791 36.1381H191.832C191.156 36.1381 190.825 36.4725 190.825 37.1501V43.0707C190.825 43.7501 191.158 44.0827 191.832 44.0827H192.791C193.466 44.0827 193.797 43.7501 193.797 43.0707V37.1501C193.799 36.4725 193.466 36.1381 192.791 36.1381ZM192.91 43.1904H191.713V37.0322H192.91V43.1904Z" fill="black"/>
<path d="M201.01 43.1904H199.813V36.1381H198.924V43.0707C198.924 43.7501 199.257 44.0827 199.93 44.0827H201.896V36.1381H201.007V43.1904H201.01Z" fill="black"/>
<path d="M208.994 36.1381H207.029V44.0827H207.917V40.4501H208.995C209.671 40.4501 210.002 40.1157 210.002 39.4381V37.1518C210 36.4725 209.669 36.1381 208.994 36.1381ZM209.111 39.5578H207.914V37.0322H209.111V39.5578Z" fill="black"/>
</g>
<defs>
<clipPath id="clip0_10_85">
<rect width="210" height="44" fill="white"/>
</clipPath>
</defs>
</svg>
